<?xml version="1.0" encoding="utf-8"?>
<!-- Svg Vector Icons : http://www.onlinewebfonts.com/icon -->
<!DOCTYPE svg PUBLIC "-//W3C//DTD SVG 1.1//EN" "http://www.w3.org/Graphics/SVG/1.1/DTD/svg11.dtd">
<svg version="1.1" xmlns="http://www.w3.org/2000/svg" xmlns:xlink="http://www.w3.org/1999/xlink" x="0px" y="0px" viewBox="0 0 256 256" enable-background="new 0 0 256 256" xml:space="preserve">
<metadata> Svg Vector Icons : http://www.onlinewebfonts.com/icon </metadata>
<g><g><path fill="#000000" d="M235.5,123.6c-1.7,2.2-3.5,4.3-5.4,6.3c-4.7,5.3-9.8,10.3-15,15.1c-3.5,3.2-7,6.2-10.7,9.2c-1,0.8-1.9,1.5-2.9,2.3c-0.8,0.6,1.1-0.8,0.3-0.2c-0.2,0.2-0.5,0.4-0.7,0.6c-0.5,0.4-1.1,0.8-1.6,1.2c-2.1,1.6-4.3,3.1-6.5,4.6c-4.5,3.1-9.2,6-13.9,8.6c-2.5,1.4-5,2.7-7.6,3.9c-1.3,0.6-2.5,1.2-3.8,1.8c-0.3,0.1-0.6,0.3-0.9,0.4c-0.2,0.1-1.3,0.6-0.4,0.1c1-0.4-0.1,0-0.4,0.1c-0.4,0.2-0.8,0.3-1.3,0.5c-5.3,2.1-10.8,3.9-16.4,5.2c-2.9,0.7-5.8,1.2-8.7,1.7c-0.2,0-1.5,0.2-0.4,0c1.1-0.2-0.1,0-0.4,0c-0.7,0.1-1.5,0.2-2.3,0.2c-1.4,0.1-2.9,0.2-4.4,0.3c-3,0.1-6,0.1-9,0c-1.5-0.1-2.9-0.2-4.4-0.3c-0.7-0.1-1.4-0.1-2.1-0.2c-0.3,0-1.5-0.2-0.4,0c1.1,0.1-0.5-0.1-0.7-0.1c-5.7-0.9-11.4-2.2-16.9-4c-2.7-0.9-5.4-1.8-8-2.9c-0.4-0.1-0.7-0.3-1.1-0.5c-0.2-0.1-1.3-0.6-0.4-0.1c1,0.4-0.1,0-0.4-0.1c-0.4-0.1-0.7-0.3-1.1-0.5c-1.3-0.6-2.6-1.2-3.8-1.8c-5-2.4-9.9-5.1-14.6-8c-4.6-2.8-9-5.9-13.3-9.1c-0.5-0.4-1-0.7-1.4-1.1c-0.2-0.2-0.5-0.4-0.7-0.6c-0.7-0.6,1.2,0.9,0.2,0.1c-1-0.7-1.9-1.5-2.9-2.3c-1.9-1.5-3.7-3.1-5.6-4.6c-6-5.2-11.7-10.7-17.1-16.5c-2.7-2.9-5.4-5.9-7.9-9c-0.1-0.1-0.2-0.3-0.3-0.4c0,2.9,0,5.8,0,8.7c1.7-2.2,3.5-4.3,5.4-6.3c4.7-5.3,9.8-10.3,15-15.1c3.5-3.2,7-6.2,10.7-9.2c1-0.8,1.9-1.5,2.9-2.3c0.8-0.6-1.1,0.8-0.3,0.2c0.2-0.2,0.5-0.4,0.7-0.6c0.5-0.4,1.1-0.8,1.6-1.2c2.1-1.6,4.3-3.1,6.5-4.6c4.5-3.1,9.2-6,13.9-8.6c2.5-1.4,5-2.7,7.6-3.9c1.3-0.6,2.5-1.2,3.8-1.8c0.3-0.1,0.6-0.3,0.9-0.4c0.2-0.1,1.3-0.6,0.4-0.1c-1,0.4,0.1,0,0.4-0.1c0.4-0.2,0.8-0.3,1.3-0.5c5.3-2.1,10.8-3.9,16.4-5.2c2.9-0.7,5.8-1.2,8.7-1.7c0.2,0,1.5-0.2,0.4,0c-1.1,0.1,0.1,0,0.4,0c0.7-0.1,1.5-0.2,2.3-0.2c1.4-0.1,2.9-0.2,4.4-0.3c3-0.1,6-0.1,9,0c1.5,0.1,2.9,0.2,4.4,0.3c0.7,0.1,1.4,0.1,2.1,0.2c0.2,0,1.5,0.2,0.4,0c-1.1-0.1,0.5,0.1,0.7,0.1c5.7,0.9,11.4,2.2,16.9,4c2.7,0.9,5.4,1.8,8,2.9c0.4,0.1,0.7,0.3,1.1,0.5c0.2,0.1,1.3,0.6,0.4,0.1s0.1,0,0.4,0.1c0.4,0.1,0.7,0.3,1.1,0.5c1.3,0.6,2.6,1.2,3.8,1.8c5,2.4,9.9,5.1,14.6,8c4.6,2.8,9,5.9,13.3,9.1c0.5,0.4,1,0.7,1.4,1.1c0.2,0.2,0.5,0.4,0.7,0.6c0.7,0.6-1.2-0.9-0.2-0.1c1,0.7,1.9,1.5,2.9,2.3c1.9,1.5,3.7,3.1,5.6,4.6c6,5.2,11.7,10.7,17.1,16.5c2.7,2.9,5.4,5.9,7.9,9c0.1,0.1,0.2,0.3,0.3,0.4c0.9,1.2,3,1.8,4.3,1.8c1.5,0,3.3-0.7,4.3-1.8c1.1-1.2,1.9-2.7,1.8-4.3c-0.1-1.7-0.7-3-1.8-4.3c-1.7-2.2-3.6-4.3-5.5-6.4c-4.9-5.4-10-10.5-15.3-15.4c-7.7-7-15.8-13.5-24.4-19.4c-9.7-6.6-20-12.2-30.9-16.5c-11.3-4.5-23.4-7.3-35.6-7.9c-12.3-0.6-24.7,1.3-36.4,5.1c-11.3,3.6-22.1,8.8-32.2,15c-9.2,5.7-17.9,12.2-26.1,19.3c-6.1,5.2-12,10.8-17.5,16.7c-2.8,3-5.5,6-8.1,9.2c-0.1,0.1-0.2,0.3-0.3,0.4c-1,1.3-1.9,2.6-1.8,4.3c0.1,1.7,0.7,3,1.8,4.3c1.7,2.2,3.6,4.3,5.5,6.4c4.9,5.4,10,10.5,15.3,15.4c7.7,7,15.8,13.5,24.4,19.4c9.7,6.6,20,12.2,30.9,16.5c11.3,4.5,23.4,7.3,35.6,7.9c12.3,0.6,24.7-1.3,36.4-5.1c11.3-3.6,22.1-8.8,32.2-15c9.2-5.7,17.9-12.2,26.1-19.3c6.1-5.3,12-10.8,17.5-16.7c2.8-3,5.5-6,8.1-9.2c0.1-0.1,0.2-0.3,0.3-0.4c1-1.3,1.8-2.6,1.8-4.3c0-1.5-0.7-3.3-1.8-4.3C242,121.6,237.6,120.9,235.5,123.6z"/><path fill="#000000" d="M153.8,128c0,0.8,0,1.5-0.1,2.3c0,0.4-0.1,0.8-0.1,1.2c0,0.2-0.1,0.9,0-0.1c0.1-1.1,0,0,0,0.2c-0.3,1.5-0.6,3-1.1,4.5c-0.2,0.7-0.5,1.4-0.7,2.1c-0.4,1,0.6-1.3,0-0.1c-0.2,0.4-0.4,0.8-0.6,1.2c-0.7,1.3-1.5,2.6-2.3,3.9c-0.2,0.2-1,1.3-0.3,0.5c0.7-0.8-0.1,0.1-0.2,0.3c-0.5,0.7-1.1,1.3-1.7,1.9c-0.5,0.5-1,1-1.6,1.5c-0.3,0.3-0.6,0.5-0.9,0.8c-0.2,0.2-1.3,1-0.4,0.4s-0.2,0.1-0.5,0.3c-0.3,0.2-0.6,0.4-0.8,0.6c-0.7,0.5-1.4,0.9-2.2,1.3c-0.7,0.4-1.3,0.7-2,1c-0.1,0.1-0.3,0.1-0.5,0.2c-0.6,0.3,0.7-0.3,0.7-0.3c-0.4,0.1-0.8,0.3-1.3,0.5c-1.5,0.6-3.1,1-4.6,1.3c-0.3,0.1-0.7,0.1-1,0.2c-0.2,0-0.5,0.1-0.7,0.1c-0.1,0,1.4-0.2,0.8-0.1c-0.8,0.1-1.6,0.2-2.5,0.2c-1.7,0.1-3.3,0-5-0.2c-0.7,0,0.8,0.1,0.8,0.1c-0.2,0-0.3,0-0.5-0.1c-0.4-0.1-0.8-0.1-1.2-0.2c-0.8-0.2-1.6-0.3-2.4-0.6c-0.8-0.2-1.5-0.5-2.3-0.7c-0.3-0.1-0.6-0.2-1-0.4c-0.2-0.1-0.8-0.3,0.1,0c1,0.4,0,0-0.2-0.1c-1.4-0.6-2.7-1.4-4-2.2c-0.6-0.4-1.2-0.9-1.8-1.3c1.5,0.9,0.5,0.4,0.1,0c-0.3-0.3-0.7-0.6-1-0.9c-1.1-1-2.2-2.1-3.1-3.3c-0.2-0.2-1-1.3-0.4-0.4c0.7,0.9-0.2-0.3-0.3-0.5c-0.5-0.7-0.9-1.3-1.3-2c-0.4-0.6-0.7-1.3-1.1-1.9c-0.2-0.4-0.4-0.7-0.5-1.1c-0.1-0.1-0.1-0.3-0.2-0.5c-0.4-0.7,0.5,1.2,0.2,0.5c-0.6-1.5-1.1-3-1.5-4.6c-0.2-0.7-0.3-1.5-0.5-2.2c0-0.2,0-0.3-0.1-0.5c-0.1-0.8,0.1,1.4,0.1,0.6c0-0.4-0.1-0.8-0.1-1.2c-0.1-1.7-0.1-3.3,0-5c0-0.4,0.1-0.7,0.1-1.1c0.1-1.1-0.2,1.4,0,0.1c0.1-0.8,0.3-1.6,0.5-2.4c0.4-1.6,0.9-3,1.5-4.6c0.2-0.6-0.3,0.7-0.3,0.7c0.1-0.2,0.2-0.4,0.3-0.6c0.1-0.3,0.3-0.6,0.4-0.9c0.4-0.7,0.7-1.4,1.1-2.1s0.8-1.3,1.3-2c0.2-0.3,0.4-0.5,0.6-0.8c0,0.1-1,1.2-0.3,0.5c0.1-0.2,0.3-0.3,0.4-0.5c1-1.2,2-2.2,3.1-3.3c0.3-0.3,0.6-0.5,0.9-0.8c0.2-0.2,1.3-1,0.4-0.4c-0.8,0.6,0.1-0.1,0.3-0.2c0.4-0.3,0.7-0.5,1.1-0.7c1.3-0.8,2.6-1.6,4-2.2c0.2-0.1,0.4-0.2,0.6-0.3c0,0-1.3,0.5-0.7,0.3c0.4-0.1,0.7-0.3,1.1-0.4c0.7-0.3,1.5-0.5,2.3-0.7c0.7-0.2,1.4-0.4,2.2-0.5c0.4-0.1,0.8-0.2,1.2-0.2c0.2,0,0.3,0,0.5-0.1c0.7-0.1-1.7,0.2-0.4,0.1c1.6-0.1,3.2-0.2,4.8-0.2c0.8,0,1.5,0.1,2.3,0.2c1.1,0.1-1.4-0.2-0.1,0c0.4,0.1,0.8,0.1,1.2,0.2c1.6,0.3,3.1,0.7,4.6,1.3c0.4,0.1,0.7,0.3,1.1,0.4c0.6,0.2-0.7-0.3-0.7-0.3c0.1,0.1,0.3,0.1,0.5,0.2c0.8,0.4,1.5,0.7,2.3,1.1c0.6,0.4,1.3,0.7,1.9,1.1c0.3,0.2,0.6,0.4,0.8,0.6c0.2,0.1,1.4,1.1,0.6,0.4c-0.9-0.7,0.3,0.2,0.4,0.4c0.3,0.2,0.5,0.4,0.7,0.7c0.6,0.5,1.2,1.1,1.7,1.6c0.6,0.6,1.1,1.1,1.6,1.7c0.2,0.3,0.4,0.5,0.6,0.8c0,0-0.9-1.3-0.4-0.4c0.1,0.2,0.3,0.4,0.4,0.6c0.9,1.3,1.7,2.6,2.4,4c0.1,0.3,0.3,0.6,0.4,0.9c0.1,0.2,0.2,0.4,0.3,0.6c0,0-0.5-1.3-0.3-0.7c0.3,0.7,0.6,1.5,0.8,2.2c0.5,1.5,0.9,3.1,1.1,4.7c0,0.2,0,0.3,0.1,0.5c0,0.1-0.2-1.4-0.1-0.8c0,0.4,0.1,0.8,0.1,1.2C153.8,126.3,153.8,127.1,153.8,128c0,3.2,2.8,6.3,6.1,6.1c3.3-0.1,6.2-2.7,6.1-6.1c0-7.7-2.3-15.5-6.8-21.7c-4.7-6.5-11-11.3-18.5-14.1c-14.5-5.4-32-0.6-41.8,11.3c-5.2,6.3-8.2,13.8-8.9,21.9c-0.6,7.7,1.3,15.7,5.3,22.3c3.8,6.3,9.6,11.7,16.4,14.8c7.7,3.5,15.9,4.5,24.2,2.8c14.8-3,27.2-15.7,29.5-30.7c0.3-2.2,0.6-4.4,0.6-6.6c0-3.2-2.8-6.3-6.1-6.1C156.6,122,153.8,124.5,153.8,128z"/></g></g>
</svg>